<svg width="27" height="24" viewBox="0 0 27 24" fill="none" xmlns="http://www.w3.org/2000/svg">
<path d="M20.88 7.12C21.2298 7.11853 21.565 6.97966 21.8133 6.73333L22.76 5.78667C22.8996 5.66714 23.0129 5.52005 23.093 5.35463C23.173 5.18921 23.218 5.00903 23.2251 4.8254C23.2322 4.64178 23.2012 4.45867 23.1342 4.28757C23.0671 4.11647 22.9655 3.96107 22.8355 3.83113C22.7056 3.70119 22.5502 3.59952 22.3791 3.53248C22.208 3.46545 22.0249 3.43451 21.8413 3.4416C21.6576 3.44869 21.4775 3.49367 21.312 3.5737C21.1466 3.65373 20.9995 3.76709 20.88 3.90667L20 4.85333C19.7517 5.10315 19.6123 5.44109 19.6123 5.79333C19.6123 6.14558 19.7517 6.48352 20 6.73333C20.2351 6.96715 20.5488 7.105 20.88 7.12ZM13.3333 4C13.687 4 14.0261 3.85952 14.2761 3.60948C14.5262 3.35943 14.6667 3.02029 14.6667 2.66667V1.33333C14.6667 0.979711 14.5262 0.640573 14.2761 0.390524C14.0261 0.140476 13.687 0 13.3333 0C12.9797 0 12.6406 0.140476 12.3905 0.390524C12.1405 0.640573 12 0.979711 12 1.33333V2.66667C12 3.02029 12.1405 3.35943 12.3905 3.60948C12.6406 3.85952 12.9797 4 13.3333 4ZM2.66667 12H1.33333C0.979711 12 0.640573 12.1405 0.390524 12.3905C0.140476 12.6406 0 12.9797 0 13.3333C0 13.687 0.140476 14.0261 0.390524 14.2761C0.640573 14.5262 0.979711 14.6667 1.33333 14.6667H2.66667C3.02029 14.6667 3.35943 14.5262 3.60948 14.2761C3.85952 14.0261 4 13.687 4 13.3333C4 12.9797 3.85952 12.6406 3.60948 12.3905C3.35943 12.1405 3.02029 12 2.66667 12ZM4.85333 6.73333C5.10168 6.97966 5.43688 7.11853 5.78667 7.12C5.96214 7.12102 6.13609 7.08738 6.29854 7.02103C6.46099 6.95468 6.60875 6.85691 6.73333 6.73333C6.98167 6.48352 7.12106 6.14558 7.12106 5.79333C7.12106 5.44109 6.98167 5.10315 6.73333 4.85333L5.78667 3.90667C5.5316 3.68823 5.2035 3.57409 4.86793 3.58705C4.53236 3.60001 4.21404 3.73912 3.97658 3.97658C3.73912 4.21404 3.60001 4.53236 3.58705 4.86793C3.57409 5.2035 3.68823 5.5316 3.90667 5.78667L4.85333 6.73333ZM25.3333 12H24C23.6464 12 23.3072 12.1405 23.0572 12.3905C22.8071 12.6406 22.6667 12.9797 22.6667 13.3333C22.6667 13.687 22.8071 14.0261 23.0572 14.2761C23.3072 14.5262 23.6464 14.6667 24 14.6667H25.3333C25.687 14.6667 26.0261 14.5262 26.2761 14.2761C26.5262 14.0261 26.6667 13.687 26.6667 13.3333C26.6667 12.9797 26.5262 12.6406 26.2761 12.3905C26.0261 12.1405 25.687 12 25.3333 12ZM12 21.3333H8C7.64638 21.3333 7.30724 21.4738 7.05719 21.7239C6.80714 21.9739 6.66667 22.313 6.66667 22.6667C6.66667 23.0203 6.80714 23.3594 7.05719 23.6095C7.30724 23.8595 7.64638 24 8 24H12C12.3536 24 12.6928 23.8595 12.9428 23.6095C13.1929 23.3594 13.3333 23.0203 13.3333 22.6667C13.3333 22.313 13.1929 21.9739 12.9428 21.7239C12.6928 21.4738 12.3536 21.3333 12 21.3333ZM21.3333 16H20.16C20.4967 15.1514 20.6687 14.2463 20.6667 13.3333C20.6667 11.3884 19.894 9.52315 18.5188 8.14788C17.1435 6.77262 15.2783 6 13.3333 6C11.3884 6 9.52315 6.77262 8.14788 8.14788C6.77262 9.52315 6 11.3884 6 13.3333C5.99797 14.2463 6.16992 15.1514 6.50667 16H5.33333C4.97971 16 4.64057 16.1405 4.39052 16.3905C4.14048 16.6406 4 16.9797 4 17.3333C4 17.687 4.14048 18.0261 4.39052 18.2761C4.64057 18.5262 4.97971 18.6667 5.33333 18.6667H21.3333C21.687 18.6667 22.0261 18.5262 22.2761 18.2761C22.5262 18.0261 22.6667 17.687 22.6667 17.3333C22.6667 16.9797 22.5262 16.6406 22.2761 16.3905C22.0261 16.1405 21.687 16 21.3333 16ZM17.1333 16H9.53333C8.97316 15.2234 8.67011 14.2909 8.66667 13.3333C8.66667 12.0957 9.15833 10.9087 10.0335 10.0335C10.9087 9.15833 12.0957 8.66667 13.3333 8.66667C14.571 8.66667 15.758 9.15833 16.6332 10.0335C17.5083 10.9087 18 12.0957 18 13.3333C17.9966 14.2909 17.6935 15.2234 17.1333 16ZM18.6667 21.3333H17.3333C16.9797 21.3333 16.6406 21.4738 16.3905 21.7239C16.1405 21.9739 16 22.313 16 22.6667C16 23.0203 16.1405 23.3594 16.3905 23.6095C16.6406 23.8595 16.9797 24 17.3333 24H18.6667C19.0203 24 19.3594 23.8595 19.6095 23.6095C19.8595 23.3594 20 23.0203 20 22.6667C20 22.313 19.8595 21.9739 19.6095 21.7239C19.3594 21.4738 19.0203 21.3333 18.6667 21.3333Z" fill="black"/>
</svg>
